<svg xmlns="http://www.w3.org/2000/svg" viewBox="0 0 1000 706" width="1000" height="706" role="img" aria-label="Star schema: fact_order_line (112,650 rows, one per order line, key order_id plus order_item_id) joins three dimensions, many to one: dim_supplier (3,095 rows) on supplier_key, dim_product (32,951) on product_key and dim_date (774 days) on due_date, the date promised to the customer. Three side tables have no relationship: buyer (10 rows), read by row-level security to filter dim_product by department; weekly_summary (11 rows), one per department plus one for all departments, per week; and client_setting (1 row), the rule thresholds the measures read.">
  <defs>
    <linearGradient id="bg" x1="0" y1="0" x2="1" y2="1">
      <stop offset="0" stop-color="#0B1220"/>
      <stop offset="0.55" stop-color="#10213A"/>
      <stop offset="1" stop-color="#1E1B4B"/>
    </linearGradient>
    <marker id="arrow" viewBox="0 0 10 10" refX="9" refY="5" markerWidth="6" markerHeight="6" orient="auto">
      <path d="M0 0 L10 5 L0 10 Z" fill="#64748B"/>
    </marker>
  </defs>
  <style>
    text { font-family: "Segoe UI", -apple-system, Helvetica, Arial, sans-serif; }
    .title { font-size: 21px; font-weight: 700; fill: #FFFFFF; }
    .sub { font-size: 13.5px; fill: #CBD5E1; }
    .layer { font-size: 14px; font-weight: 700; fill: #0B1220; }
    .where { font-size: 12px; fill: #94A3B8; }
    .name { font-size: 13px; fill: #F1F5F9; }
    .count { font-size: 11.5px; fill: #94A3B8; }
    .col { font-size: 12.5px; fill: #E2E8F0; }
    .key { font-size: 11px; font-weight: 700; }
    .edge { fill: none; stroke: #64748B; stroke-width: 1.4; }
  </style>
  <rect width="1000" height="706" rx="22" fill="url(#bg)"/>
  <text x="40" y="50" class="title">The star schema</text>
  <text x="40" y="74" class="sub">One fact row per order line, three dimensions around it. Every join is many to one, on a single key.</text>
  <path d="M370 213.5 C325.0 213.5 325.0 167.5 280 167.5" class="edge" stroke="#94A3B8"/>
  <text x="360" y="208.5" class="key" fill="#CBD5E1" text-anchor="end">*</text><text x="288" y="162.5" class="key" fill="#CBD5E1" text-anchor="start">1</text>
  <path d="M370 236.5 C325.0 236.5 325.0 357.5 280 357.5" class="edge" stroke="#94A3B8"/>
  <text x="360" y="231.5" class="key" fill="#CBD5E1" text-anchor="end">*</text><text x="288" y="352.5" class="key" fill="#CBD5E1" text-anchor="start">1</text>
  <path d="M630 351.5 C675.0 351.5 675.0 167.5 720 167.5" class="edge" stroke="#94A3B8"/>
  <text x="640" y="346.5" class="key" fill="#CBD5E1" text-anchor="start">*</text><text x="712" y="162.5" class="key" fill="#CBD5E1" text-anchor="end">1</text>
  <rect x="370" y="110" width="260" height="284" rx="10" fill="#13233D" stroke="#2563EB" stroke-width="1.5"/>
  <path d="M370 120 a10 10 0 0 1 10 -10 h240 a10 10 0 0 1 10 10 v36 h-260 Z" fill="#2563EB"/>
  <text x="382" y="130" class="name" font-weight="700" style="fill:#FFFFFF">fact_order_line</text><text x="382" y="147" class="count" style="fill:#FFFFFF">112,650 rows</text>
  <text x="382" y="172" class="col">order_id</text><text x="618" y="172" class="key" fill="#FBBF24" text-anchor="end">PK</text>
  <text x="382" y="195" class="col">order_item_id</text><text x="618" y="195" class="key" fill="#FBBF24" text-anchor="end">PK</text>
  <text x="382" y="218" class="col">supplier_key</text><text x="618" y="218" class="key" fill="#93C5FD" text-anchor="end">FK</text>
  <text x="382" y="241" class="col">product_key</text><text x="618" y="241" class="key" fill="#93C5FD" text-anchor="end">FK</text>
  <text x="382" y="264" class="col">order_status</text>
  <text x="382" y="287" class="col">purchase_date</text>
  <text x="382" y="310" class="col">handover_due</text>
  <text x="382" y="333" class="col">handed_over</text>
  <text x="382" y="356" class="col">due_date</text><text x="618" y="356" class="key" fill="#93C5FD" text-anchor="end">FK</text>
  <text x="382" y="379" class="col">delivered_date</text>
  <rect x="40" y="110" width="240" height="169" rx="10" fill="#13233D" stroke="#14B8A6" stroke-width="1.5"/>
  <path d="M40 120 a10 10 0 0 1 10 -10 h220 a10 10 0 0 1 10 10 v36 h-240 Z" fill="#14B8A6"/>
  <text x="52" y="130" class="name" font-weight="700" style="fill:#0B1220">dim_supplier</text><text x="52" y="147" class="count" style="fill:#0B1220">3,095 rows</text>
  <text x="52" y="172" class="col">supplier_key</text><text x="268" y="172" class="key" fill="#FBBF24" text-anchor="end">PK</text>
  <text x="52" y="195" class="col">supplier</text>
  <text x="52" y="218" class="col">seller_id</text>
  <text x="52" y="241" class="col">city</text>
  <text x="52" y="264" class="col">state</text>
  <rect x="40" y="300" width="240" height="146" rx="10" fill="#13233D" stroke="#14B8A6" stroke-width="1.5"/>
  <path d="M40 310 a10 10 0 0 1 10 -10 h220 a10 10 0 0 1 10 10 v36 h-240 Z" fill="#14B8A6"/>
  <text x="52" y="320" class="name" font-weight="700" style="fill:#0B1220">dim_product</text><text x="52" y="337" class="count" style="fill:#0B1220">32,951 rows</text>
  <text x="52" y="362" class="col">product_key</text><text x="268" y="362" class="key" fill="#FBBF24" text-anchor="end">PK</text>
  <text x="52" y="385" class="col">product_id</text>
  <text x="52" y="408" class="col">category</text>
  <text x="52" y="431" class="col">department</text>
  <rect x="720" y="110" width="240" height="169" rx="10" fill="#13233D" stroke="#14B8A6" stroke-width="1.5"/>
  <path d="M720 120 a10 10 0 0 1 10 -10 h220 a10 10 0 0 1 10 10 v36 h-240 Z" fill="#14B8A6"/>
  <text x="732" y="130" class="name" font-weight="700" style="fill:#0B1220">dim_date</text><text x="732" y="147" class="count" style="fill:#0B1220">774 rows</text>
  <text x="732" y="172" class="col">date</text><text x="948" y="172" class="key" fill="#FBBF24" text-anchor="end">PK</text>
  <text x="732" y="195" class="col">year</text>
  <text x="732" y="218" class="col">month</text>
  <text x="732" y="241" class="col">month_sort</text>
  <text x="732" y="264" class="col">week_start</text>
  <rect x="40" y="506" width="240" height="100" rx="10" fill="#13233D" stroke="#94A3B8" stroke-width="1.5"/>
  <path d="M40 516 a10 10 0 0 1 10 -10 h220 a10 10 0 0 1 10 10 v36 h-240 Z" fill="#94A3B8"/>
  <text x="52" y="526" class="name" font-weight="700" style="fill:#0B1220">buyer</text><text x="52" y="543" class="count" style="fill:#0B1220">10 rows</text>
  <text x="52" y="568" class="col">buyer_email</text><text x="268" y="568" class="key" fill="#FBBF24" text-anchor="end">PK</text>
  <text x="52" y="591" class="col">department</text>
  <rect x="370" y="506" width="260" height="146" rx="10" fill="#13233D" stroke="#94A3B8" stroke-width="1.5"/>
  <path d="M370 516 a10 10 0 0 1 10 -10 h240 a10 10 0 0 1 10 10 v36 h-260 Z" fill="#94A3B8"/>
  <text x="382" y="526" class="name" font-weight="700" style="fill:#0B1220">weekly_summary</text><text x="382" y="543" class="count" style="fill:#0B1220">11 rows</text>
  <text x="382" y="568" class="col">week_start</text><text x="618" y="568" class="key" fill="#FBBF24" text-anchor="end">PK</text>
  <text x="382" y="591" class="col">department</text><text x="618" y="591" class="key" fill="#FBBF24" text-anchor="end">PK</text>
  <text x="382" y="614" class="col">summary</text>
  <text x="382" y="637" class="col">created_at</text>
  <rect x="720" y="506" width="240" height="146" rx="10" fill="#13233D" stroke="#94A3B8" stroke-width="1.5"/>
  <path d="M720 516 a10 10 0 0 1 10 -10 h220 a10 10 0 0 1 10 10 v36 h-240 Z" fill="#94A3B8"/>
  <text x="732" y="526" class="name" font-weight="700" style="fill:#0B1220">client_setting</text><text x="732" y="543" class="count" style="fill:#0B1220">1 row</text>
  <text x="732" y="568" class="col">on_time_grace_days</text>
  <text x="732" y="591" class="col">handover_grace_hours</text>
  <text x="732" y="614" class="col">watch_list_min_lines</text>
  <text x="732" y="637" class="col">watch_list_times_overall</text>
  <text x="40" y="492" class="where">No relationship: row-level security reads buyer to filter dim_product[department]; a table visual shows weekly_summary; the measures read client_setting.</text>
  <text x="40" y="682" class="where">PK primary key · FK foreign key · 1 to * one dimension row to many fact rows</text>
</svg>
